<?xml version="1.0" encoding="UTF-8" standalone="no"?>
<!DOCTYPE svg PUBLIC "-//W3C//DTD SVG 1.1//EN"
 "http://www.w3.org/Graphics/SVG/1.1/DTD/svg11.dtd">
<!-- Generated by graphviz version 2.38.0 (20140413.2041)
 -->
<!-- Title: models_diagram Pages: 1 -->
<svg width="850pt" height="225pt"
 viewBox="0.00 0.00 850.38 225.00" xmlns="http://www.w3.org/2000/svg" xmlns:xlink="http://www.w3.org/1999/xlink">
<g id="graph0" class="graph" transform="scale(1 1) rotate(0) translate(4 221)">
<title>models_diagram</title>
<polygon fill="none" stroke="none" points="-4,4 -4,-221 846.382,-221 846.382,4 -4,4"/>
<!-- _diagram_info -->
<g id="node1" class="node"><title>_diagram_info</title>
<text text-anchor="start" x="8" y="-202.6" font-family="Times,serif" font-size="13.00">Models diagram</text>
<text text-anchor="start" x="8" y="-189.6" font-family="Times,serif" font-size="13.00">Date: Jun 17 2016 &#45; 17:26</text>
<text text-anchor="start" x="8" y="-176.6" font-family="Times,serif" font-size="13.00">Migration version: 20160617222639</text>
<text text-anchor="start" x="8" y="-163.6" font-family="Times,serif" font-size="13.00">Generated by RailRoady 1.4.2</text>
<text text-anchor="start" x="8" y="-150.6" font-family="Times,serif" font-size="13.00">http://railroady.prestonlee.com</text>
</g>
<!-- DataSource -->
<g id="node2" class="node"><title>DataSource</title>
<ellipse fill="none" stroke="black" cx="482.688" cy="-180.5" rx="51.2156" ry="18"/>
<text text-anchor="middle" x="482.688" y="-176.3" font-family="Times,serif" font-size="14.00">DataSource</text>
</g>
<!-- DataSourceAccount -->
<g id="node3" class="node"><title>DataSourceAccount</title>
<ellipse fill="none" stroke="black" cx="127.688" cy="-90" rx="81.1336" ry="18"/>
<text text-anchor="middle" x="127.688" y="-85.8" font-family="Times,serif" font-size="14.00">DataSourceAccount</text>
</g>
<!-- DataSource&#45;&gt;DataSourceAccount -->
<g id="edge3" class="edge"><title>DataSource&#45;&gt;DataSourceAccount</title>
<path fill="none" stroke="#509f61" d="M434.102,-167.388C370.558,-151.547 259.163,-123.776 189.624,-106.441"/>
<ellipse fill="none" stroke="#509f61" cx="438.084" cy="-168.38" rx="4.00001" ry="4.00001"/>
<polygon fill="#509f61" stroke="#509f61" points="189.382,-106.38 180.768,-99.5948 184.531,-105.171 179.679,-103.961 179.679,-103.961 179.679,-103.961 184.531,-105.171 178.591,-108.328 189.382,-106.38 189.382,-106.38"/>
</g>
<!-- Workspace -->
<g id="node8" class="node"><title>Workspace</title>
<ellipse fill="none" stroke="black" cx="689.688" cy="-90" rx="49.3546" ry="18"/>
<text text-anchor="middle" x="689.688" y="-85.8" font-family="Times,serif" font-size="14.00">Workspace</text>
</g>
<!-- DataSource&#45;&gt;Workspace -->
<g id="edge2" class="edge"><title>DataSource&#45;&gt;Workspace</title>
<path fill="none" stroke="#bb2d0f" d="M514.9,-158.937C523.729,-153.72 533.423,-148.363 542.688,-144 575.433,-128.578 613.974,-114.836 643.375,-105.211"/>
<polygon fill="#bb2d0f" stroke="#bb2d0f" points="514.626,-159.103 503.74,-160.425 510.347,-161.689 506.068,-164.276 506.068,-164.276 506.068,-164.276 510.347,-161.689 508.396,-168.127 514.626,-159.103 514.626,-159.103"/>
<polygon fill="#bb2d0f" stroke="#bb2d0f" points="643.459,-105.184 654.358,-106.39 648.217,-103.646 652.974,-102.108 652.974,-102.108 652.974,-102.108 648.217,-103.646 651.59,-97.8259 643.459,-105.184 643.459,-105.184"/>
</g>
<!-- WorkspaceDataSource -->
<g id="node9" class="node"><title>WorkspaceDataSource</title>
<ellipse fill="none" stroke="black" cx="582.688" cy="-18" rx="90.3556" ry="18"/>
<text text-anchor="middle" x="582.688" y="-13.8" font-family="Times,serif" font-size="14.00">WorkspaceDataSource</text>
</g>
<!-- DataSource&#45;&gt;WorkspaceDataSource -->
<g id="edge1" class="edge"><title>DataSource&#45;&gt;WorkspaceDataSource</title>
<path fill="none" stroke="#8e8db6" d="M510.133,-158.502C525.484,-145.465 543.855,-127.51 555.688,-108 567.291,-88.8682 574.243,-64.3707 578.181,-45.9222"/>
<ellipse fill="none" stroke="#8e8db6" cx="506.846" cy="-161.226" rx="4.00002" ry="4.00002"/>
<polygon fill="#8e8db6" stroke="#8e8db6" points="578.181,-45.9183 584.53,-36.9774 579.148,-41.0127 580.115,-36.1071 580.115,-36.1071 580.115,-36.1071 579.148,-41.0127 575.7,-35.2368 578.181,-45.9183 578.181,-45.9183"/>
</g>
<!-- Dataset -->
<g id="node4" class="node"><title>Dataset</title>
<ellipse fill="none" stroke="black" cx="758.688" cy="-180.5" rx="36.7489" ry="18"/>
<text text-anchor="middle" x="758.688" y="-176.3" font-family="Times,serif" font-size="14.00">Dataset</text>
</g>
<!-- Dataset&#45;&gt;Workspace -->
<g id="edge5" class="edge"><title>Dataset&#45;&gt;Workspace</title>
<path fill="none" stroke="#70db53" d="M739.815,-155.293C730.181,-142.938 718.487,-127.938 708.817,-115.536"/>
<polygon fill="#70db53" stroke="#70db53" points="739.883,-155.381 742.483,-166.035 742.958,-159.325 746.032,-163.268 746.032,-163.268 746.032,-163.268 742.958,-159.325 749.581,-160.501 739.883,-155.381 739.883,-155.381"/>
<polygon fill="#70db53" stroke="#70db53" points="708.646,-115.315 706.046,-104.662 705.571,-111.372 702.497,-107.429 702.497,-107.429 702.497,-107.429 705.571,-111.372 698.948,-110.196 708.646,-115.315 708.646,-115.315"/>
</g>
<!-- WorkspaceDataset -->
<g id="node10" class="node"><title>WorkspaceDataset</title>
<ellipse fill="none" stroke="black" cx="766.688" cy="-18" rx="75.8893" ry="18"/>
<text text-anchor="middle" x="766.688" y="-13.8" font-family="Times,serif" font-size="14.00">WorkspaceDataset</text>
</g>
<!-- Dataset&#45;&gt;WorkspaceDataset -->
<g id="edge4" class="edge"><title>Dataset&#45;&gt;WorkspaceDataset</title>
<path fill="none" stroke="#9ea3bb" d="M759.955,-154.079C761.42,-124.675 763.824,-76.4552 765.328,-46.2837"/>
<ellipse fill="none" stroke="#9ea3bb" cx="759.743" cy="-158.329" rx="4" ry="4"/>
<polygon fill="#9ea3bb" stroke="#9ea3bb" points="765.34,-46.0404 770.332,-36.2769 765.589,-41.0466 765.838,-36.0528 765.838,-36.0528 765.838,-36.0528 765.589,-41.0466 761.343,-35.8287 765.34,-46.0404 765.34,-46.0404"/>
</g>
<!-- HdfsDataSource -->
<g id="node5" class="node"><title>HdfsDataSource</title>
<ellipse fill="none" stroke="black" cx="620.688" cy="-180.5" rx="68.6046" ry="18"/>
<text text-anchor="middle" x="620.688" y="-176.3" font-family="Times,serif" font-size="14.00">HdfsDataSource</text>
</g>
<!-- HdfsDataSourceConnectionParametersSet -->
<g id="node6" class="node"><title>HdfsDataSourceConnectionParametersSet</title>
<ellipse fill="none" stroke="black" cx="386.688" cy="-90" rx="159.821" ry="18"/>
<text text-anchor="middle" x="386.688" y="-85.8" font-family="Times,serif" font-size="14.00">HdfsDataSourceConnectionParametersSet</text>
</g>
<!-- HdfsDataSource&#45;&gt;HdfsDataSourceConnectionParametersSet -->
<g id="edge8" class="edge"><title>HdfsDataSource&#45;&gt;HdfsDataSourceConnectionParametersSet</title>
<path fill="none" stroke="#10f35c" d="M581.966,-160.957C569.534,-155.252 555.631,-149.129 542.688,-144 511.868,-131.786 476.98,-119.769 448.025,-110.273"/>
<ellipse fill="none" stroke="#10f35c" cx="585.865" cy="-162.762" rx="4.00002" ry="4.00002"/>
<polygon fill="#10f35c" stroke="#10f35c" points="447.955,-110.25 439.841,-102.874 443.201,-108.701 438.447,-107.152 438.447,-107.152 438.447,-107.152 443.201,-108.701 437.053,-111.431 447.955,-110.25 447.955,-110.25"/>
</g>
<!-- HdfsDataSource&#45;&gt;Workspace -->
<g id="edge7" class="edge"><title>HdfsDataSource&#45;&gt;Workspace</title>
<path fill="none" stroke="#788f0d" d="M640.182,-154.497C649.736,-142.242 661.198,-127.541 670.686,-115.372"/>
<polygon fill="#788f0d" stroke="#788f0d" points="640.14,-154.55 630.443,-159.669 637.066,-158.493 633.992,-162.436 633.992,-162.436 633.992,-162.436 637.066,-158.493 637.54,-165.203 640.14,-154.55 640.14,-154.55"/>
<polygon fill="#788f0d" stroke="#788f0d" points="670.743,-115.299 680.44,-110.18 673.817,-111.356 676.891,-107.413 676.891,-107.413 676.891,-107.413 673.817,-111.356 673.342,-104.646 670.743,-115.299 670.743,-115.299"/>
</g>
<!-- HdfsDataSource&#45;&gt;WorkspaceDataSource -->
<g id="edge6" class="edge"><title>HdfsDataSource&#45;&gt;WorkspaceDataSource</title>
<path fill="none" stroke="#5fdc8f" d="M614.768,-154.499C607.79,-125.023 596.236,-76.224 589.064,-45.9332"/>
<ellipse fill="none" stroke="#5fdc8f" cx="615.699" cy="-158.431" rx="4.00001" ry="4.00001"/>
<polygon fill="#5fdc8f" stroke="#5fdc8f" points="589.029,-45.7838 591.104,-35.016 587.877,-40.9183 586.725,-36.0528 586.725,-36.0528 586.725,-36.0528 587.877,-40.9183 582.346,-37.0896 589.029,-45.7838 589.029,-45.7838"/>
</g>
<!-- User -->
<g id="node7" class="node"><title>User</title>
<ellipse fill="none" stroke="black" cx="252.688" cy="-180.5" rx="27" ry="18"/>
<text text-anchor="middle" x="252.688" y="-176.3" font-family="Times,serif" font-size="14.00">User</text>
</g>
<!-- User&#45;&gt;DataSourceAccount -->
<g id="edge9" class="edge"><title>User&#45;&gt;DataSourceAccount</title>
<path fill="none" stroke="#f78971" d="M233.285,-158.68C228.116,-153.616 222.379,-148.397 216.688,-144 201.341,-132.144 183.131,-120.872 167.194,-111.796"/>
<ellipse fill="none" stroke="#f78971" cx="236.238" cy="-161.657" rx="4.00002" ry="4.00002"/>
<polygon fill="#f78971" stroke="#f78971" points="166.84,-111.598 160.308,-102.79 162.476,-109.158 158.111,-106.718 158.111,-106.718 158.111,-106.718 162.476,-109.158 155.915,-110.646 166.84,-111.598 166.84,-111.598"/>
</g>
<!-- User&#45;&gt;HdfsDataSourceConnectionParametersSet -->
<g id="edge10" class="edge"><title>User&#45;&gt;HdfsDataSourceConnectionParametersSet</title>
<path fill="none" stroke="#753bca" d="M278.288,-162.592C299.314,-148.705 329.286,-128.911 352.387,-113.654"/>
<ellipse fill="none" stroke="#753bca" cx="274.658" cy="-164.99" rx="4.00002" ry="4.00002"/>
<polygon fill="#753bca" stroke="#753bca" points="352.527,-113.562 363.351,-111.806 356.699,-110.806 360.871,-108.051 360.871,-108.051 360.871,-108.051 356.699,-110.806 358.391,-104.296 352.527,-113.562 352.527,-113.562"/>
</g>
<!-- Workspace&#45;&gt;WorkspaceDataSource -->
<g id="edge11" class="edge"><title>Workspace&#45;&gt;WorkspaceDataSource</title>
<path fill="none" stroke="#85d6f4" d="M659.963,-69.5539C646.392,-60.6754 630.258,-50.1206 616.251,-40.9576"/>
<ellipse fill="none" stroke="#85d6f4" cx="663.386" cy="-71.7934" rx="4.00002" ry="4.00002"/>
<polygon fill="#85d6f4" stroke="#85d6f4" points="616.216,-40.9342 610.311,-31.6938 612.032,-38.1969 607.847,-35.4596 607.847,-35.4596 607.847,-35.4596 612.032,-38.1969 605.384,-39.2253 616.216,-40.9342 616.216,-40.9342"/>
</g>
<!-- Workspace&#45;&gt;WorkspaceDataset -->
<g id="edge12" class="edge"><title>Workspace&#45;&gt;WorkspaceDataset</title>
<path fill="none" stroke="#922055" d="M713.216,-67.6111C721.983,-59.6408 731.977,-50.5552 740.934,-42.4126"/>
<ellipse fill="none" stroke="#922055" cx="710.12" cy="-70.4252" rx="4.00002" ry="4.00002"/>
<polygon fill="#922055" stroke="#922055" points="741.082,-42.2784 751.508,-38.8814 744.781,-38.915 748.481,-35.5516 748.481,-35.5516 748.481,-35.5516 744.781,-38.915 745.454,-32.2219 741.082,-42.2784 741.082,-42.2784"/>
</g>
</g>
</svg>
