<?xml version="1.0" encoding="UTF-8" standalone="no"?>
<!DOCTYPE svg PUBLIC "-//W3C//DTD SVG 1.1//EN"
 "http://www.w3.org/Graphics/SVG/1.1/DTD/svg11.dtd">
<!-- Generated by graphviz version 2.38.0 (20140413.2041)
 -->
<!-- Title: models_diagram Pages: 1 -->
<svg width="928pt" height="383pt"
 viewBox="0.00 0.00 928.26 383.00" xmlns="http://www.w3.org/2000/svg" xmlns:xlink="http://www.w3.org/1999/xlink">
<g id="graph0" class="graph" transform="scale(1 1) rotate(0) translate(4 379)">
<title>models_diagram</title>
<polygon fill="none" stroke="none" points="-4,4 -4,-379 924.264,-379 924.264,4 -4,4"/>
<!-- _diagram_info -->
<g id="node1" class="node"><title>_diagram_info</title>
<text text-anchor="start" x="8" y="-360.6" font-family="Times,serif" font-size="13.00">Models diagram</text>
<text text-anchor="start" x="8" y="-347.6" font-family="Times,serif" font-size="13.00">Date: Jun 17 2016 &#45; 15:57</text>
<text text-anchor="start" x="8" y="-334.6" font-family="Times,serif" font-size="13.00">Migration version: 20160617222639</text>
<text text-anchor="start" x="8" y="-321.6" font-family="Times,serif" font-size="13.00">Generated by RailRoady 1.4.2</text>
<text text-anchor="start" x="8" y="-308.6" font-family="Times,serif" font-size="13.00">http://railroady.prestonlee.com</text>
</g>
<!-- DataSource -->
<g id="node2" class="node"><title>DataSource</title>
<path fill="none" stroke="black" d="M416.182,-302.5C416.182,-302.5 525.193,-302.5 525.193,-302.5 531.193,-302.5 537.193,-308.5 537.193,-314.5 537.193,-314.5 537.193,-362.5 537.193,-362.5 537.193,-368.5 531.193,-374.5 525.193,-374.5 525.193,-374.5 416.182,-374.5 416.182,-374.5 410.182,-374.5 404.182,-368.5 404.182,-362.5 404.182,-362.5 404.182,-314.5 404.182,-314.5 404.182,-308.5 410.182,-302.5 416.182,-302.5"/>
<text text-anchor="middle" x="470.688" y="-359.3" font-family="Times,serif" font-size="14.00">DataSource</text>
<polyline fill="none" stroke="black" points="404.182,-352.5 537.193,-352.5 "/>
<text text-anchor="start" x="412.182" y="-337.3" font-family="Times,serif" font-size="14.00">id :INTEGER</text>
<text text-anchor="start" x="412.182" y="-323.3" font-family="Times,serif" font-size="14.00">created_at :datetime</text>
<text text-anchor="start" x="412.182" y="-309.3" font-family="Times,serif" font-size="14.00">updated_at :datetime</text>
</g>
<!-- Workspace -->
<g id="node8" class="node"><title>Workspace</title>
<path fill="none" stroke="black" d="M233.182,-172.5C233.182,-172.5 342.193,-172.5 342.193,-172.5 348.193,-172.5 354.193,-178.5 354.193,-184.5 354.193,-184.5 354.193,-232.5 354.193,-232.5 354.193,-238.5 348.193,-244.5 342.193,-244.5 342.193,-244.5 233.182,-244.5 233.182,-244.5 227.182,-244.5 221.182,-238.5 221.182,-232.5 221.182,-232.5 221.182,-184.5 221.182,-184.5 221.182,-178.5 227.182,-172.5 233.182,-172.5"/>
<text text-anchor="middle" x="287.688" y="-229.3" font-family="Times,serif" font-size="14.00">Workspace</text>
<polyline fill="none" stroke="black" points="221.182,-222.5 354.193,-222.5 "/>
<text text-anchor="start" x="229.182" y="-207.3" font-family="Times,serif" font-size="14.00">id :INTEGER</text>
<text text-anchor="start" x="229.182" y="-193.3" font-family="Times,serif" font-size="14.00">created_at :datetime</text>
<text text-anchor="start" x="229.182" y="-179.3" font-family="Times,serif" font-size="14.00">updated_at :datetime</text>
</g>
<!-- DataSource&#45;&gt;Workspace -->
<g id="edge2" class="edge"><title>DataSource&#45;&gt;Workspace</title>
<path fill="none" stroke="#e56d8d" d="M411.929,-296.401C390.907,-281.697 367.228,-265.134 346.224,-250.443"/>
<polygon fill="#e56d8d" stroke="#e56d8d" points="412.003,-296.453 417.619,-305.872 416.101,-299.319 420.198,-302.185 420.198,-302.185 420.198,-302.185 416.101,-299.319 422.777,-298.497 412.003,-296.453 412.003,-296.453"/>
<polygon fill="#e56d8d" stroke="#e56d8d" points="346.207,-250.432 340.592,-241.013 342.11,-247.566 338.013,-244.7 338.013,-244.7 338.013,-244.7 342.11,-247.566 335.434,-248.388 346.207,-250.432 346.207,-250.432"/>
</g>
<!-- WorkspaceDataSource -->
<g id="node9" class="node"><title>WorkspaceDataSource</title>
<path fill="none" stroke="black" d="M380.306,-0.5C380.306,-0.5 595.069,-0.5 595.069,-0.5 601.069,-0.5 607.069,-6.5 607.069,-12.5 607.069,-12.5 607.069,-102.5 607.069,-102.5 607.069,-108.5 601.069,-114.5 595.069,-114.5 595.069,-114.5 380.306,-114.5 380.306,-114.5 374.306,-114.5 368.306,-108.5 368.306,-102.5 368.306,-102.5 368.306,-12.5 368.306,-12.5 368.306,-6.5 374.306,-0.5 380.306,-0.5"/>
<text text-anchor="middle" x="487.688" y="-99.3" font-family="Times,serif" font-size="14.00">WorkspaceDataSource</text>
<polyline fill="none" stroke="black" points="368.306,-92.5 607.069,-92.5 "/>
<text text-anchor="start" x="376.306" y="-77.3" font-family="Times,serif" font-size="14.00">id :INTEGER</text>
<text text-anchor="start" x="376.306" y="-63.3" font-family="Times,serif" font-size="14.00">polymorphic_data_source_id :integer</text>
<text text-anchor="start" x="376.306" y="-49.3" font-family="Times,serif" font-size="14.00">polymorphic_data_source_type :integer</text>
<text text-anchor="start" x="376.306" y="-35.3" font-family="Times,serif" font-size="14.00">workspace_id :integer</text>
<text text-anchor="start" x="376.306" y="-21.3" font-family="Times,serif" font-size="14.00">created_at :datetime</text>
<text text-anchor="start" x="376.306" y="-7.3" font-family="Times,serif" font-size="14.00">updated_at :datetime</text>
</g>
<!-- DataSource&#45;&gt;WorkspaceDataSource -->
<g id="edge1" class="edge"><title>DataSource&#45;&gt;WorkspaceDataSource</title>
<path fill="none" stroke="#6adc30" d="M473.315,-294.379C476.074,-249.106 480.447,-177.34 483.645,-124.847"/>
<ellipse fill="none" stroke="#6adc30" cx="473.067" cy="-298.454" rx="4" ry="4"/>
<polygon fill="#6adc30" stroke="#6adc30" points="483.66,-124.6 488.76,-114.892 483.964,-119.609 484.268,-114.619 484.268,-114.619 484.268,-114.619 483.964,-119.609 479.777,-114.345 483.66,-124.6 483.66,-124.6"/>
</g>
<!-- DataSourceAccount -->
<g id="node3" class="node"><title>DataSourceAccount</title>
<path fill="none" stroke="black" d="M514.186,-151.5C514.186,-151.5 637.19,-151.5 637.19,-151.5 643.19,-151.5 649.19,-157.5 649.19,-163.5 649.19,-163.5 649.19,-253.5 649.19,-253.5 649.19,-259.5 643.19,-265.5 637.19,-265.5 637.19,-265.5 514.186,-265.5 514.186,-265.5 508.186,-265.5 502.186,-259.5 502.186,-253.5 502.186,-253.5 502.186,-163.5 502.186,-163.5 502.186,-157.5 508.186,-151.5 514.186,-151.5"/>
<text text-anchor="middle" x="575.688" y="-250.3" font-family="Times,serif" font-size="14.00">DataSourceAccount</text>
<polyline fill="none" stroke="black" points="502.186,-243.5 649.19,-243.5 "/>
<text text-anchor="start" x="510.186" y="-228.3" font-family="Times,serif" font-size="14.00">id :INTEGER</text>
<text text-anchor="start" x="510.186" y="-214.3" font-family="Times,serif" font-size="14.00">data_source_id :integer</text>
<text text-anchor="start" x="510.186" y="-200.3" font-family="Times,serif" font-size="14.00">user_id :integer</text>
<text text-anchor="start" x="510.186" y="-186.3" font-family="Times,serif" font-size="14.00">workspace_id :integer</text>
<text text-anchor="start" x="510.186" y="-172.3" font-family="Times,serif" font-size="14.00">created_at :datetime</text>
<text text-anchor="start" x="510.186" y="-158.3" font-family="Times,serif" font-size="14.00">updated_at :datetime</text>
</g>
<!-- Dataset -->
<g id="node4" class="node"><title>Dataset</title>
<path fill="none" stroke="black" d="M26.6306,-7.5C26.6306,-7.5 180.745,-7.5 180.745,-7.5 186.745,-7.5 192.745,-13.5 192.745,-19.5 192.745,-19.5 192.745,-95.5 192.745,-95.5 192.745,-101.5 186.745,-107.5 180.745,-107.5 180.745,-107.5 26.6306,-107.5 26.6306,-107.5 20.6306,-107.5 14.6306,-101.5 14.6306,-95.5 14.6306,-95.5 14.6306,-19.5 14.6306,-19.5 14.6306,-13.5 20.6306,-7.5 26.6306,-7.5"/>
<text text-anchor="middle" x="103.688" y="-92.3" font-family="Times,serif" font-size="14.00">Dataset</text>
<polyline fill="none" stroke="black" points="14.6306,-85.5 192.745,-85.5 "/>
<text text-anchor="start" x="22.6306" y="-70.3" font-family="Times,serif" font-size="14.00">id :INTEGER</text>
<text text-anchor="start" x="22.6306" y="-56.3" font-family="Times,serif" font-size="14.00">data_source_id :integer</text>
<text text-anchor="start" x="22.6306" y="-42.3" font-family="Times,serif" font-size="14.00">hdfs_data_source_id :integer</text>
<text text-anchor="start" x="22.6306" y="-28.3" font-family="Times,serif" font-size="14.00">created_at :datetime</text>
<text text-anchor="start" x="22.6306" y="-14.3" font-family="Times,serif" font-size="14.00">updated_at :datetime</text>
</g>
<!-- Dataset&#45;&gt;Workspace -->
<g id="edge3" class="edge"><title>Dataset&#45;&gt;Workspace</title>
<path fill="none" stroke="#66cbed" d="M177.227,-112.768C199.182,-130.223 222.588,-149.282 242.203,-165.699"/>
<ellipse fill="none" stroke="#66cbed" cx="173.906" cy="-110.135" rx="4.00002" ry="4.00002"/>
<polygon fill="#66cbed" stroke="#66cbed" points="242.268,-165.754 247.026,-175.633 246.095,-168.971 249.922,-172.189 249.922,-172.189 249.922,-172.189 246.095,-168.971 252.818,-168.745 242.268,-165.754 242.268,-165.754"/>
</g>
<!-- HdfsDataSource -->
<g id="node5" class="node"><title>HdfsDataSource</title>
<path fill="none" stroke="black" d="M237.182,-302.5C237.182,-302.5 346.193,-302.5 346.193,-302.5 352.193,-302.5 358.193,-308.5 358.193,-314.5 358.193,-314.5 358.193,-362.5 358.193,-362.5 358.193,-368.5 352.193,-374.5 346.193,-374.5 346.193,-374.5 237.182,-374.5 237.182,-374.5 231.182,-374.5 225.182,-368.5 225.182,-362.5 225.182,-362.5 225.182,-314.5 225.182,-314.5 225.182,-308.5 231.182,-302.5 237.182,-302.5"/>
<text text-anchor="middle" x="291.688" y="-359.3" font-family="Times,serif" font-size="14.00">HdfsDataSource</text>
<polyline fill="none" stroke="black" points="225.182,-352.5 358.193,-352.5 "/>
<text text-anchor="start" x="233.182" y="-337.3" font-family="Times,serif" font-size="14.00">id :INTEGER</text>
<text text-anchor="start" x="233.182" y="-323.3" font-family="Times,serif" font-size="14.00">created_at :datetime</text>
<text text-anchor="start" x="233.182" y="-309.3" font-family="Times,serif" font-size="14.00">updated_at :datetime</text>
</g>
<!-- HdfsDataSource&#45;&gt;Workspace -->
<g id="edge5" class="edge"><title>HdfsDataSource&#45;&gt;Workspace</title>
<path fill="none" stroke="#a70955" d="M290.258,-291.763C289.884,-279.787 289.481,-266.879 289.107,-254.919"/>
<polygon fill="#a70955" stroke="#a70955" points="290.272,-292.189 286.086,-302.325 290.428,-297.187 290.584,-302.185 290.584,-302.185 290.584,-302.185 290.428,-297.187 295.082,-302.044 290.272,-292.189 290.272,-292.189"/>
<polygon fill="#a70955" stroke="#a70955" points="289.1,-254.695 293.286,-244.56 288.944,-249.698 288.788,-244.7 288.788,-244.7 288.788,-244.7 288.944,-249.698 284.29,-244.841 289.1,-254.695 289.1,-254.695"/>
</g>
<!-- HdfsDataSource&#45;&gt;WorkspaceDataSource -->
<g id="edge4" class="edge"><title>HdfsDataSource&#45;&gt;WorkspaceDataSource</title>
<path fill="none" stroke="#a04f90" d="M336.426,-296.56C345.906,-286.953 355.509,-276.457 363.688,-266 398.688,-221.251 431.346,-165.807 454.351,-123.491"/>
<ellipse fill="none" stroke="#a04f90" cx="333.386" cy="-299.593" rx="4.00002" ry="4.00002"/>
<polygon fill="#a04f90" stroke="#a04f90" points="454.363,-123.469 463.072,-116.806 456.737,-119.069 459.111,-114.669 459.111,-114.669 459.111,-114.669 456.737,-119.069 455.151,-112.532 454.363,-123.469 454.363,-123.469"/>
</g>
<!-- HdfsDataSourceConnectionParametersSet -->
<g id="node6" class="node"><title>HdfsDataSourceConnectionParametersSet</title>
<path fill="none" stroke="black" d="M679.112,-151.5C679.112,-151.5 908.264,-151.5 908.264,-151.5 914.264,-151.5 920.264,-157.5 920.264,-163.5 920.264,-163.5 920.264,-253.5 920.264,-253.5 920.264,-259.5 914.264,-265.5 908.264,-265.5 908.264,-265.5 679.112,-265.5 679.112,-265.5 673.112,-265.5 667.112,-259.5 667.112,-253.5 667.112,-253.5 667.112,-163.5 667.112,-163.5 667.112,-157.5 673.112,-151.5 679.112,-151.5"/>
<text text-anchor="middle" x="793.688" y="-250.3" font-family="Times,serif" font-size="14.00">HdfsDataSourceConnectionParametersSet</text>
<polyline fill="none" stroke="black" points="667.112,-243.5 920.264,-243.5 "/>
<text text-anchor="start" x="675.112" y="-228.3" font-family="Times,serif" font-size="14.00">id :INTEGER</text>
<text text-anchor="start" x="675.112" y="-214.3" font-family="Times,serif" font-size="14.00">hdfs_data_source_id :integer</text>
<text text-anchor="start" x="675.112" y="-200.3" font-family="Times,serif" font-size="14.00">user_id :integer</text>
<text text-anchor="start" x="675.112" y="-186.3" font-family="Times,serif" font-size="14.00">workspace_id :integer</text>
<text text-anchor="start" x="675.112" y="-172.3" font-family="Times,serif" font-size="14.00">created_at :datetime</text>
<text text-anchor="start" x="675.112" y="-158.3" font-family="Times,serif" font-size="14.00">updated_at :datetime</text>
</g>
<!-- User -->
<g id="node7" class="node"><title>User</title>
<path fill="none" stroke="black" d="M664.61,-316.5C664.61,-316.5 734.765,-316.5 734.765,-316.5 740.765,-316.5 746.765,-322.5 746.765,-328.5 746.765,-328.5 746.765,-348.5 746.765,-348.5 746.765,-354.5 740.765,-360.5 734.765,-360.5 734.765,-360.5 664.61,-360.5 664.61,-360.5 658.61,-360.5 652.61,-354.5 652.61,-348.5 652.61,-348.5 652.61,-328.5 652.61,-328.5 652.61,-322.5 658.61,-316.5 664.61,-316.5"/>
<text text-anchor="middle" x="699.688" y="-345.3" font-family="Times,serif" font-size="14.00">User</text>
<polyline fill="none" stroke="black" points="652.61,-338.5 746.765,-338.5 "/>
<text text-anchor="start" x="660.61" y="-323.3" font-family="Times,serif" font-size="14.00">id :INTEGER</text>
</g>
<!-- User&#45;&gt;DataSourceAccount -->
<g id="edge6" class="edge"><title>User&#45;&gt;DataSourceAccount</title>
<path fill="none" stroke="#d11c74" d="M673.626,-310.598C662.951,-299.578 650.105,-286.318 637.282,-273.081"/>
<ellipse fill="none" stroke="#d11c74" cx="676.428" cy="-313.49" rx="4.00002" ry="4.00002"/>
<polygon fill="#d11c74" stroke="#d11c74" points="637.133,-272.927 633.407,-262.613 633.654,-269.336 630.175,-265.745 630.175,-265.745 630.175,-265.745 633.654,-269.336 626.943,-268.876 637.133,-272.927 637.133,-272.927"/>
</g>
<!-- User&#45;&gt;HdfsDataSourceConnectionParametersSet -->
<g id="edge7" class="edge"><title>User&#45;&gt;HdfsDataSourceConnectionParametersSet</title>
<path fill="none" stroke="#2053c3" d="M719.965,-309.889C727.757,-299.278 737.017,-286.669 746.297,-274.032"/>
<ellipse fill="none" stroke="#2053c3" cx="717.578" cy="-313.139" rx="4.00002" ry="4.00002"/>
<polygon fill="#2053c3" stroke="#2053c3" points="746.464,-273.805 756.01,-268.408 749.424,-269.775 752.383,-265.745 752.383,-265.745 752.383,-265.745 749.424,-269.775 748.756,-263.081 746.464,-273.805 746.464,-273.805"/>
</g>
<!-- Workspace&#45;&gt;Dataset -->
<g id="edge10" class="edge"><title>Workspace&#45;&gt;Dataset</title>
<path fill="none" stroke="#b304bf" d="M230.234,-165.936C209.779,-149.897 186.681,-131.308 165.853,-114.148"/>
<polygon fill="#b304bf" stroke="#b304bf" points="230.361,-166.034 235.473,-175.736 234.302,-169.112 238.242,-172.189 238.242,-172.189 238.242,-172.189 234.302,-169.112 241.012,-168.642 230.361,-166.034 230.361,-166.034"/>
<polygon fill="#b304bf" stroke="#b304bf" points="165.7,-114.021 160.86,-104.181 161.846,-110.835 157.992,-107.649 157.992,-107.649 157.992,-107.649 161.846,-110.835 155.125,-111.118 165.7,-114.021 165.7,-114.021"/>
</g>
<!-- Workspace&#45;&gt;WorkspaceDataSource -->
<g id="edge8" class="edge"><title>Workspace&#45;&gt;WorkspaceDataSource</title>
<path fill="none" stroke="#bb32ad" d="M341.461,-167.439C360.763,-153.059 383.011,-136.484 404.236,-120.672"/>
<ellipse fill="none" stroke="#bb32ad" cx="338.039" cy="-169.988" rx="4.00002" ry="4.00002"/>
<polygon fill="#bb32ad" stroke="#bb32ad" points="404.293,-120.629 415.001,-118.263 408.303,-117.642 412.312,-114.655 412.312,-114.655 412.312,-114.655 408.303,-117.642 409.624,-111.046 404.293,-120.629 404.293,-120.629"/>
</g>
<!-- WorkspaceDataset -->
<g id="node10" class="node"><title>WorkspaceDataset</title>
<path fill="none" stroke="black" d="M222.682,-7.5C222.682,-7.5 338.693,-7.5 338.693,-7.5 344.693,-7.5 350.693,-13.5 350.693,-19.5 350.693,-19.5 350.693,-95.5 350.693,-95.5 350.693,-101.5 344.693,-107.5 338.693,-107.5 338.693,-107.5 222.682,-107.5 222.682,-107.5 216.682,-107.5 210.682,-101.5 210.682,-95.5 210.682,-95.5 210.682,-19.5 210.682,-19.5 210.682,-13.5 216.682,-7.5 222.682,-7.5"/>
<text text-anchor="middle" x="280.688" y="-92.3" font-family="Times,serif" font-size="14.00">WorkspaceDataset</text>
<polyline fill="none" stroke="black" points="210.682,-85.5 350.693,-85.5 "/>
<text text-anchor="start" x="218.682" y="-70.3" font-family="Times,serif" font-size="14.00">id :INTEGER</text>
<text text-anchor="start" x="218.682" y="-56.3" font-family="Times,serif" font-size="14.00">dataset_id :integer</text>
<text text-anchor="start" x="218.682" y="-42.3" font-family="Times,serif" font-size="14.00">workspace_id :integer</text>
<text text-anchor="start" x="218.682" y="-28.3" font-family="Times,serif" font-size="14.00">created_at :datetime</text>
<text text-anchor="start" x="218.682" y="-14.3" font-family="Times,serif" font-size="14.00">updated_at :datetime</text>
</g>
<!-- Workspace&#45;&gt;WorkspaceDataset -->
<g id="edge9" class="edge"><title>Workspace&#45;&gt;WorkspaceDataset</title>
<path fill="none" stroke="#419af1" d="M285.634,-163.789C284.962,-149.478 284.203,-133.328 283.485,-118.052"/>
<ellipse fill="none" stroke="#419af1" cx="285.841" cy="-168.193" rx="4" ry="4"/>
<polygon fill="#419af1" stroke="#419af1" points="283.466,-117.638 287.492,-107.438 283.231,-112.644 282.997,-107.649 282.997,-107.649 282.997,-107.649 283.231,-112.644 278.502,-107.861 283.466,-117.638 283.466,-117.638"/>
</g>
</g>
</svg>
