<?xml version="1.0" encoding="UTF-8" standalone="no"?>
<!DOCTYPE svg PUBLIC "-//W3C//DTD SVG 1.1//EN"
 "http://www.w3.org/Graphics/SVG/1.1/DTD/svg11.dtd">
<!-- Generated by graphviz version 2.38.0 (20140413.2041)
 -->
<!-- Title: models_diagram Pages: 1 -->
<svg width="932pt" height="439pt"
 viewBox="0.00 0.00 931.74 439.00" xmlns="http://www.w3.org/2000/svg" xmlns:xlink="http://www.w3.org/1999/xlink">
<g id="graph0" class="graph" transform="scale(1 1) rotate(0) translate(4 435)">
<title>models_diagram</title>
<polygon fill="none" stroke="none" points="-4,4 -4,-435 927.745,-435 927.745,4 -4,4"/>
<!-- _diagram_info -->
<g id="node1" class="node"><title>_diagram_info</title>
<text text-anchor="start" x="8" y="-395.6" font-family="Times,serif" font-size="13.00">Models diagram</text>
<text text-anchor="start" x="8" y="-382.6" font-family="Times,serif" font-size="13.00">Date: Jun 17 2016 &#45; 17:26</text>
<text text-anchor="start" x="8" y="-369.6" font-family="Times,serif" font-size="13.00">Migration version: 20160617222639</text>
<text text-anchor="start" x="8" y="-356.6" font-family="Times,serif" font-size="13.00">Generated by RailRoady 1.4.2</text>
<text text-anchor="start" x="8" y="-343.6" font-family="Times,serif" font-size="13.00">http://railroady.prestonlee.com</text>
</g>
<!-- DataSource -->
<g id="node2" class="node"><title>DataSource</title>
<path fill="none" stroke="black" d="M447.182,-323.5C447.182,-323.5 556.193,-323.5 556.193,-323.5 562.193,-323.5 568.193,-329.5 568.193,-335.5 568.193,-335.5 568.193,-411.5 568.193,-411.5 568.193,-417.5 562.193,-423.5 556.193,-423.5 556.193,-423.5 447.182,-423.5 447.182,-423.5 441.182,-423.5 435.182,-417.5 435.182,-411.5 435.182,-411.5 435.182,-335.5 435.182,-335.5 435.182,-329.5 441.182,-323.5 447.182,-323.5"/>
<text text-anchor="middle" x="501.688" y="-408.3" font-family="Times,serif" font-size="14.00">DataSource</text>
<polyline fill="none" stroke="black" points="435.182,-401.5 568.193,-401.5 "/>
<text text-anchor="start" x="443.182" y="-386.3" font-family="Times,serif" font-size="14.00">id :INTEGER</text>
<text text-anchor="start" x="443.182" y="-372.3" font-family="Times,serif" font-size="14.00">name :varchar</text>
<text text-anchor="start" x="443.182" y="-358.3" font-family="Times,serif" font-size="14.00">public :boolean</text>
<text text-anchor="start" x="443.182" y="-344.3" font-family="Times,serif" font-size="14.00">created_at :datetime</text>
<text text-anchor="start" x="443.182" y="-330.3" font-family="Times,serif" font-size="14.00">updated_at :datetime</text>
</g>
<!-- DataSourceAccount -->
<g id="node3" class="node"><title>DataSourceAccount</title>
<path fill="none" stroke="black" d="M176.186,-151.5C176.186,-151.5 299.19,-151.5 299.19,-151.5 305.19,-151.5 311.19,-157.5 311.19,-163.5 311.19,-163.5 311.19,-267.5 311.19,-267.5 311.19,-273.5 305.19,-279.5 299.19,-279.5 299.19,-279.5 176.186,-279.5 176.186,-279.5 170.186,-279.5 164.186,-273.5 164.186,-267.5 164.186,-267.5 164.186,-163.5 164.186,-163.5 164.186,-157.5 170.186,-151.5 176.186,-151.5"/>
<text text-anchor="middle" x="237.688" y="-264.3" font-family="Times,serif" font-size="14.00">DataSourceAccount</text>
<polyline fill="none" stroke="black" points="164.186,-257.5 311.19,-257.5 "/>
<text text-anchor="start" x="172.186" y="-242.3" font-family="Times,serif" font-size="14.00">id :INTEGER</text>
<text text-anchor="start" x="172.186" y="-228.3" font-family="Times,serif" font-size="14.00">password :varchar</text>
<text text-anchor="start" x="172.186" y="-214.3" font-family="Times,serif" font-size="14.00">data_source_id :integer</text>
<text text-anchor="start" x="172.186" y="-200.3" font-family="Times,serif" font-size="14.00">user_id :integer</text>
<text text-anchor="start" x="172.186" y="-186.3" font-family="Times,serif" font-size="14.00">workspace_id :integer</text>
<text text-anchor="start" x="172.186" y="-172.3" font-family="Times,serif" font-size="14.00">created_at :datetime</text>
<text text-anchor="start" x="172.186" y="-158.3" font-family="Times,serif" font-size="14.00">updated_at :datetime</text>
</g>
<!-- DataSource&#45;&gt;DataSourceAccount -->
<g id="edge3" class="edge"><title>DataSource&#45;&gt;DataSourceAccount</title>
<path fill="none" stroke="#8259a2" d="M427.638,-338.799C396.267,-323.604 359.518,-304.585 320.355,-280.225"/>
<ellipse fill="none" stroke="#8259a2" cx="431.577" cy="-340.695" rx="4.00002" ry="4.00002"/>
<polygon fill="#8259a2" stroke="#8259a2" points="319.892,-279.934 313.826,-270.798 315.66,-277.27 311.429,-274.606 311.429,-274.606 311.429,-274.606 315.66,-277.27 309.031,-278.414 319.892,-279.934 319.892,-279.934"/>
</g>
<!-- Workspace -->
<g id="node8" class="node"><title>Workspace</title>
<path fill="none" stroke="black" d="M689.182,-172.5C689.182,-172.5 798.193,-172.5 798.193,-172.5 804.193,-172.5 810.193,-178.5 810.193,-184.5 810.193,-184.5 810.193,-246.5 810.193,-246.5 810.193,-252.5 804.193,-258.5 798.193,-258.5 798.193,-258.5 689.182,-258.5 689.182,-258.5 683.182,-258.5 677.182,-252.5 677.182,-246.5 677.182,-246.5 677.182,-184.5 677.182,-184.5 677.182,-178.5 683.182,-172.5 689.182,-172.5"/>
<text text-anchor="middle" x="743.688" y="-243.3" font-family="Times,serif" font-size="14.00">Workspace</text>
<polyline fill="none" stroke="black" points="677.182,-236.5 810.193,-236.5 "/>
<text text-anchor="start" x="685.182" y="-221.3" font-family="Times,serif" font-size="14.00">id :INTEGER</text>
<text text-anchor="start" x="685.182" y="-207.3" font-family="Times,serif" font-size="14.00">name :varchar</text>
<text text-anchor="start" x="685.182" y="-193.3" font-family="Times,serif" font-size="14.00">created_at :datetime</text>
<text text-anchor="start" x="685.182" y="-179.3" font-family="Times,serif" font-size="14.00">updated_at :datetime</text>
</g>
<!-- DataSource&#45;&gt;Workspace -->
<g id="edge2" class="edge"><title>DataSource&#45;&gt;Workspace</title>
<path fill="none" stroke="#ec09cf" d="M574.371,-317.565C575.146,-317.039 575.918,-316.517 576.688,-316 605.885,-296.388 638.987,-276.254 667.976,-259.273"/>
<polygon fill="#ec09cf" stroke="#ec09cf" points="574.228,-317.664 563.444,-319.652 570.116,-320.509 566.004,-323.353 566.004,-323.353 566.004,-323.353 570.116,-320.509 568.564,-327.054 574.228,-317.664 574.228,-317.664"/>
<polygon fill="#ec09cf" stroke="#ec09cf" points="668.193,-259.146 679.099,-257.995 672.513,-256.627 676.832,-254.108 676.832,-254.108 676.832,-254.108 672.513,-256.627 674.565,-250.221 668.193,-259.146 668.193,-259.146"/>
</g>
<!-- WorkspaceDataSource -->
<g id="node9" class="node"><title>WorkspaceDataSource</title>
<path fill="none" stroke="black" d="M524.306,-0.5C524.306,-0.5 739.069,-0.5 739.069,-0.5 745.069,-0.5 751.069,-6.5 751.069,-12.5 751.069,-12.5 751.069,-102.5 751.069,-102.5 751.069,-108.5 745.069,-114.5 739.069,-114.5 739.069,-114.5 524.306,-114.5 524.306,-114.5 518.306,-114.5 512.306,-108.5 512.306,-102.5 512.306,-102.5 512.306,-12.5 512.306,-12.5 512.306,-6.5 518.306,-0.5 524.306,-0.5"/>
<text text-anchor="middle" x="631.688" y="-99.3" font-family="Times,serif" font-size="14.00">WorkspaceDataSource</text>
<polyline fill="none" stroke="black" points="512.306,-92.5 751.069,-92.5 "/>
<text text-anchor="start" x="520.306" y="-77.3" font-family="Times,serif" font-size="14.00">id :INTEGER</text>
<text text-anchor="start" x="520.306" y="-63.3" font-family="Times,serif" font-size="14.00">polymorphic_data_source_id :integer</text>
<text text-anchor="start" x="520.306" y="-49.3" font-family="Times,serif" font-size="14.00">polymorphic_data_source_type :integer</text>
<text text-anchor="start" x="520.306" y="-35.3" font-family="Times,serif" font-size="14.00">workspace_id :integer</text>
<text text-anchor="start" x="520.306" y="-21.3" font-family="Times,serif" font-size="14.00">created_at :datetime</text>
<text text-anchor="start" x="520.306" y="-7.3" font-family="Times,serif" font-size="14.00">updated_at :datetime</text>
</g>
<!-- DataSource&#45;&gt;WorkspaceDataSource -->
<g id="edge1" class="edge"><title>DataSource&#45;&gt;WorkspaceDataSource</title>
<path fill="none" stroke="#2bfef7" d="M565.731,-316.908C575.716,-305.596 584.941,-293.112 591.688,-280 616.536,-231.705 626.193,-170.56 629.83,-124.755"/>
<ellipse fill="none" stroke="#2bfef7" cx="562.811" cy="-320.112" rx="4.00002" ry="4.00002"/>
<polygon fill="#2bfef7" stroke="#2bfef7" points="629.841,-124.611 635.045,-114.959 630.198,-119.624 630.556,-114.637 630.556,-114.637 630.556,-114.637 630.198,-119.624 626.068,-114.315 629.841,-124.611 629.841,-124.611"/>
</g>
<!-- Dataset -->
<g id="node4" class="node"><title>Dataset</title>
<path fill="none" stroke="black" d="M757.631,-316.5C757.631,-316.5 911.745,-316.5 911.745,-316.5 917.745,-316.5 923.745,-322.5 923.745,-328.5 923.745,-328.5 923.745,-418.5 923.745,-418.5 923.745,-424.5 917.745,-430.5 911.745,-430.5 911.745,-430.5 757.631,-430.5 757.631,-430.5 751.631,-430.5 745.631,-424.5 745.631,-418.5 745.631,-418.5 745.631,-328.5 745.631,-328.5 745.631,-322.5 751.631,-316.5 757.631,-316.5"/>
<text text-anchor="middle" x="834.688" y="-415.3" font-family="Times,serif" font-size="14.00">Dataset</text>
<polyline fill="none" stroke="black" points="745.631,-408.5 923.745,-408.5 "/>
<text text-anchor="start" x="753.631" y="-393.3" font-family="Times,serif" font-size="14.00">id :INTEGER</text>
<text text-anchor="start" x="753.631" y="-379.3" font-family="Times,serif" font-size="14.00">name :varchar</text>
<text text-anchor="start" x="753.631" y="-365.3" font-family="Times,serif" font-size="14.00">data_source_id :integer</text>
<text text-anchor="start" x="753.631" y="-351.3" font-family="Times,serif" font-size="14.00">hdfs_data_source_id :integer</text>
<text text-anchor="start" x="753.631" y="-337.3" font-family="Times,serif" font-size="14.00">created_at :datetime</text>
<text text-anchor="start" x="753.631" y="-323.3" font-family="Times,serif" font-size="14.00">updated_at :datetime</text>
</g>
<!-- Dataset&#45;&gt;Workspace -->
<g id="edge5" class="edge"><title>Dataset&#45;&gt;Workspace</title>
<path fill="none" stroke="#6df290" d="M796.564,-307.144C788.846,-293.914 780.837,-280.184 773.458,-267.534"/>
<polygon fill="#6df290" stroke="#6df290" points="796.796,-307.543 797.948,-318.448 799.315,-311.862 801.835,-316.18 801.835,-316.18 801.835,-316.18 799.315,-311.862 805.722,-313.913 796.796,-307.543 796.796,-307.543"/>
<polygon fill="#6df290" stroke="#6df290" points="773.248,-267.174 772.096,-256.269 770.728,-262.855 768.209,-258.536 768.209,-258.536 768.209,-258.536 770.728,-262.855 764.322,-260.803 773.248,-267.174 773.248,-267.174"/>
</g>
<!-- WorkspaceDataset -->
<g id="node10" class="node"><title>WorkspaceDataset</title>
<path fill="none" stroke="black" d="M780.682,-7.5C780.682,-7.5 896.693,-7.5 896.693,-7.5 902.693,-7.5 908.693,-13.5 908.693,-19.5 908.693,-19.5 908.693,-95.5 908.693,-95.5 908.693,-101.5 902.693,-107.5 896.693,-107.5 896.693,-107.5 780.682,-107.5 780.682,-107.5 774.682,-107.5 768.682,-101.5 768.682,-95.5 768.682,-95.5 768.682,-19.5 768.682,-19.5 768.682,-13.5 774.682,-7.5 780.682,-7.5"/>
<text text-anchor="middle" x="838.688" y="-92.3" font-family="Times,serif" font-size="14.00">WorkspaceDataset</text>
<polyline fill="none" stroke="black" points="768.682,-85.5 908.693,-85.5 "/>
<text text-anchor="start" x="776.682" y="-70.3" font-family="Times,serif" font-size="14.00">id :INTEGER</text>
<text text-anchor="start" x="776.682" y="-56.3" font-family="Times,serif" font-size="14.00">dataset_id :integer</text>
<text text-anchor="start" x="776.682" y="-42.3" font-family="Times,serif" font-size="14.00">workspace_id :integer</text>
<text text-anchor="start" x="776.682" y="-28.3" font-family="Times,serif" font-size="14.00">created_at :datetime</text>
<text text-anchor="start" x="776.682" y="-14.3" font-family="Times,serif" font-size="14.00">updated_at :datetime</text>
</g>
<!-- Dataset&#45;&gt;WorkspaceDataset -->
<g id="edge4" class="edge"><title>Dataset&#45;&gt;WorkspaceDataset</title>
<path fill="none" stroke="#60cecc" d="M835.507,-308.168C836.218,-252.345 837.24,-172.179 837.932,-117.865"/>
<ellipse fill="none" stroke="#60cecc" cx="835.454" cy="-312.363" rx="4" ry="4"/>
<polygon fill="#60cecc" stroke="#60cecc" points="837.934,-117.698 842.561,-107.756 837.997,-112.698 838.061,-107.699 838.061,-107.699 838.061,-107.699 837.997,-112.698 833.561,-107.641 837.934,-117.698 837.934,-117.698"/>
</g>
<!-- HdfsDataSource -->
<g id="node5" class="node"><title>HdfsDataSource</title>
<path fill="none" stroke="black" d="M598.182,-323.5C598.182,-323.5 707.193,-323.5 707.193,-323.5 713.193,-323.5 719.193,-329.5 719.193,-335.5 719.193,-335.5 719.193,-411.5 719.193,-411.5 719.193,-417.5 713.193,-423.5 707.193,-423.5 707.193,-423.5 598.182,-423.5 598.182,-423.5 592.182,-423.5 586.182,-417.5 586.182,-411.5 586.182,-411.5 586.182,-335.5 586.182,-335.5 586.182,-329.5 592.182,-323.5 598.182,-323.5"/>
<text text-anchor="middle" x="652.688" y="-408.3" font-family="Times,serif" font-size="14.00">HdfsDataSource</text>
<polyline fill="none" stroke="black" points="586.182,-401.5 719.193,-401.5 "/>
<text text-anchor="start" x="594.182" y="-386.3" font-family="Times,serif" font-size="14.00">id :INTEGER</text>
<text text-anchor="start" x="594.182" y="-372.3" font-family="Times,serif" font-size="14.00">name :varchar</text>
<text text-anchor="start" x="594.182" y="-358.3" font-family="Times,serif" font-size="14.00">public :boolean</text>
<text text-anchor="start" x="594.182" y="-344.3" font-family="Times,serif" font-size="14.00">created_at :datetime</text>
<text text-anchor="start" x="594.182" y="-330.3" font-family="Times,serif" font-size="14.00">updated_at :datetime</text>
</g>
<!-- HdfsDataSourceConnectionParametersSet -->
<g id="node6" class="node"><title>HdfsDataSourceConnectionParametersSet</title>
<path fill="none" stroke="black" d="M341.112,-151.5C341.112,-151.5 570.264,-151.5 570.264,-151.5 576.264,-151.5 582.264,-157.5 582.264,-163.5 582.264,-163.5 582.264,-267.5 582.264,-267.5 582.264,-273.5 576.264,-279.5 570.264,-279.5 570.264,-279.5 341.112,-279.5 341.112,-279.5 335.112,-279.5 329.112,-273.5 329.112,-267.5 329.112,-267.5 329.112,-163.5 329.112,-163.5 329.112,-157.5 335.112,-151.5 341.112,-151.5"/>
<text text-anchor="middle" x="455.688" y="-264.3" font-family="Times,serif" font-size="14.00">HdfsDataSourceConnectionParametersSet</text>
<polyline fill="none" stroke="black" points="329.112,-257.5 582.264,-257.5 "/>
<text text-anchor="start" x="337.112" y="-242.3" font-family="Times,serif" font-size="14.00">id :INTEGER</text>
<text text-anchor="start" x="337.112" y="-228.3" font-family="Times,serif" font-size="14.00">connection_parameters :varchar</text>
<text text-anchor="start" x="337.112" y="-214.3" font-family="Times,serif" font-size="14.00">hdfs_data_source_id :integer</text>
<text text-anchor="start" x="337.112" y="-200.3" font-family="Times,serif" font-size="14.00">user_id :integer</text>
<text text-anchor="start" x="337.112" y="-186.3" font-family="Times,serif" font-size="14.00">workspace_id :integer</text>
<text text-anchor="start" x="337.112" y="-172.3" font-family="Times,serif" font-size="14.00">created_at :datetime</text>
<text text-anchor="start" x="337.112" y="-158.3" font-family="Times,serif" font-size="14.00">updated_at :datetime</text>
</g>
<!-- HdfsDataSource&#45;&gt;HdfsDataSourceConnectionParametersSet -->
<g id="edge8" class="edge"><title>HdfsDataSource&#45;&gt;HdfsDataSourceConnectionParametersSet</title>
<path fill="none" stroke="#e67cbe" d="M583.992,-318.102C570.91,-307.742 557.054,-296.77 543.473,-286.015"/>
<ellipse fill="none" stroke="#e67cbe" cx="587.49" cy="-320.872" rx="4.00002" ry="4.00002"/>
<polygon fill="#e67cbe" stroke="#e67cbe" points="543.356,-285.923 538.31,-276.187 539.436,-282.818 535.516,-279.714 535.516,-279.714 535.516,-279.714 539.436,-282.818 532.723,-283.242 543.356,-285.923 543.356,-285.923"/>
</g>
<!-- HdfsDataSource&#45;&gt;Workspace -->
<g id="edge7" class="edge"><title>HdfsDataSource&#45;&gt;Workspace</title>
<path fill="none" stroke="#f65422" d="M686.527,-314.489C695.549,-299.023 705.227,-282.432 714.008,-267.38"/>
<polygon fill="#f65422" stroke="#f65422" points="686.519,-314.503 677.594,-320.873 684,-318.822 681.481,-323.141 681.481,-323.141 681.481,-323.141 684,-318.822 685.368,-325.408 686.519,-314.503 686.519,-314.503"/>
<polygon fill="#f65422" stroke="#f65422" points="714.023,-267.354 722.949,-260.983 716.542,-263.035 719.062,-258.716 719.062,-258.716 719.062,-258.716 716.542,-263.035 715.175,-256.448 714.023,-267.354 714.023,-267.354"/>
</g>
<!-- HdfsDataSource&#45;&gt;WorkspaceDataSource -->
<g id="edge6" class="edge"><title>HdfsDataSource&#45;&gt;WorkspaceDataSource</title>
<path fill="none" stroke="#622aa8" d="M648.859,-315.25C645.269,-261.575 639.904,-181.348 636.128,-124.89"/>
<ellipse fill="none" stroke="#622aa8" cx="649.14" cy="-319.446" rx="4" ry="4"/>
<polygon fill="#622aa8" stroke="#622aa8" points="636.11,-124.615 639.932,-114.337 635.776,-119.626 635.442,-114.637 635.442,-114.637 635.442,-114.637 635.776,-119.626 630.952,-114.937 636.11,-124.615 636.11,-124.615"/>
</g>
<!-- User -->
<g id="node7" class="node"><title>User</title>
<path fill="none" stroke="black" d="M237.182,-330.5C237.182,-330.5 346.193,-330.5 346.193,-330.5 352.193,-330.5 358.193,-336.5 358.193,-342.5 358.193,-342.5 358.193,-404.5 358.193,-404.5 358.193,-410.5 352.193,-416.5 346.193,-416.5 346.193,-416.5 237.182,-416.5 237.182,-416.5 231.182,-416.5 225.182,-410.5 225.182,-404.5 225.182,-404.5 225.182,-342.5 225.182,-342.5 225.182,-336.5 231.182,-330.5 237.182,-330.5"/>
<text text-anchor="middle" x="291.688" y="-401.3" font-family="Times,serif" font-size="14.00">User</text>
<polyline fill="none" stroke="black" points="225.182,-394.5 358.193,-394.5 "/>
<text text-anchor="start" x="233.182" y="-379.3" font-family="Times,serif" font-size="14.00">id :INTEGER</text>
<text text-anchor="start" x="233.182" y="-365.3" font-family="Times,serif" font-size="14.00">name :varchar</text>
<text text-anchor="start" x="233.182" y="-351.3" font-family="Times,serif" font-size="14.00">created_at :datetime</text>
<text text-anchor="start" x="233.182" y="-337.3" font-family="Times,serif" font-size="14.00">updated_at :datetime</text>
</g>
<!-- User&#45;&gt;DataSourceAccount -->
<g id="edge9" class="edge"><title>User&#45;&gt;DataSourceAccount</title>
<path fill="none" stroke="#0c3909" d="M274.352,-322.419C270.7,-311.868 266.776,-300.531 262.901,-289.337"/>
<ellipse fill="none" stroke="#0c3909" cx="275.766" cy="-326.504" rx="4.00001" ry="4.00001"/>
<polygon fill="#0c3909" stroke="#0c3909" points="262.787,-289.01 263.769,-278.088 261.152,-284.285 259.516,-279.56 259.516,-279.56 259.516,-279.56 261.152,-284.285 255.264,-281.032 262.787,-289.01 262.787,-289.01"/>
</g>
<!-- User&#45;&gt;HdfsDataSourceConnectionParametersSet -->
<g id="edge10" class="edge"><title>User&#45;&gt;HdfsDataSourceConnectionParametersSet</title>
<path fill="none" stroke="#e208ee" d="M341.938,-324.701C354.573,-312.682 368.398,-299.532 381.921,-286.668"/>
<ellipse fill="none" stroke="#e208ee" cx="338.967" cy="-327.527" rx="4.00002" ry="4.00002"/>
<polygon fill="#e208ee" stroke="#e208ee" points="382.148,-286.452 392.495,-282.821 385.771,-283.006 389.394,-279.56 389.394,-279.56 389.394,-279.56 385.771,-283.006 386.292,-276.3 382.148,-286.452 382.148,-286.452"/>
</g>
<!-- Workspace&#45;&gt;WorkspaceDataSource -->
<g id="edge11" class="edge"><title>Workspace&#45;&gt;WorkspaceDataSource</title>
<path fill="none" stroke="#a5d70e" d="M708.494,-165.48C698.785,-151.956 688.103,-137.078 677.872,-122.828"/>
<ellipse fill="none" stroke="#a5d70e" cx="711.046" cy="-169.035" rx="4.00002" ry="4.00002"/>
<polygon fill="#a5d70e" stroke="#a5d70e" points="677.744,-122.649 675.567,-111.902 674.828,-118.588 671.912,-114.526 671.912,-114.526 671.912,-114.526 674.828,-118.588 668.256,-117.15 677.744,-122.649 677.744,-122.649"/>
</g>
<!-- Workspace&#45;&gt;WorkspaceDataset -->
<g id="edge12" class="edge"><title>Workspace&#45;&gt;WorkspaceDataset</title>
<path fill="none" stroke="#9fd4a1" d="M773.758,-165.121C783.183,-149.644 793.671,-132.422 803.421,-116.412"/>
<ellipse fill="none" stroke="#9fd4a1" cx="771.477" cy="-168.868" rx="4.00002" ry="4.00002"/>
<polygon fill="#9fd4a1" stroke="#9fd4a1" points="803.549,-116.202 812.593,-110.002 806.149,-111.932 808.75,-107.661 808.75,-107.661 808.75,-107.661 806.149,-111.932 804.906,-105.321 803.549,-116.202 803.549,-116.202"/>
</g>
</g>
</svg>
