<?xml version="1.0" encoding="UTF-8" standalone="no"?>
<!DOCTYPE svg PUBLIC "-//W3C//DTD SVG 1.1//EN"
 "http://www.w3.org/Graphics/SVG/1.1/DTD/svg11.dtd">
<!-- Generated by graphviz version 2.38.0 (20140413.2041)
 -->
<!-- Title: models_diagram Pages: 1 -->
<svg width="994pt" height="225pt"
 viewBox="0.00 0.00 993.60 225.00" xmlns="http://www.w3.org/2000/svg" xmlns:xlink="http://www.w3.org/1999/xlink">
<g id="graph0" class="graph" transform="scale(1 1) rotate(0) translate(4 221)">
<title>models_diagram</title>
<polygon fill="none" stroke="none" points="-4,4 -4,-221 989.598,-221 989.598,4 -4,4"/>
<!-- _diagram_info -->
<g id="node1" class="node"><title>_diagram_info</title>
<text text-anchor="start" x="8" y="-202.6" font-family="Times,serif" font-size="13.00">Models diagram</text>
<text text-anchor="start" x="8" y="-189.6" font-family="Times,serif" font-size="13.00">Date: Jun 17 2016 &#45; 15:57</text>
<text text-anchor="start" x="8" y="-176.6" font-family="Times,serif" font-size="13.00">Migration version: 20160617222639</text>
<text text-anchor="start" x="8" y="-163.6" font-family="Times,serif" font-size="13.00">Generated by RailRoady 1.4.2</text>
<text text-anchor="start" x="8" y="-150.6" font-family="Times,serif" font-size="13.00">http://railroady.prestonlee.com</text>
</g>
<!-- DataSource -->
<g id="node2" class="node"><title>DataSource</title>
<ellipse fill="none" stroke="black" cx="454.688" cy="-180.5" rx="51.2156" ry="18"/>
<text text-anchor="middle" x="454.688" y="-176.3" font-family="Times,serif" font-size="14.00">DataSource</text>
</g>
<!-- Workspace -->
<g id="node8" class="node"><title>Workspace</title>
<ellipse fill="none" stroke="black" cx="290.688" cy="-90" rx="49.3546" ry="18"/>
<text text-anchor="middle" x="290.688" y="-85.8" font-family="Times,serif" font-size="14.00">Workspace</text>
</g>
<!-- DataSource&#45;&gt;Workspace -->
<g id="edge2" class="edge"><title>DataSource&#45;&gt;Workspace</title>
<path fill="none" stroke="#8e7fb6" d="M418.896,-160.185C391.334,-145.312 353.432,-124.859 325.993,-110.052"/>
<polygon fill="#8e7fb6" stroke="#8e7fb6" points="419.173,-160.335 425.836,-169.044 423.573,-162.709 427.973,-165.084 427.973,-165.084 427.973,-165.084 423.573,-162.709 430.11,-161.124 419.173,-160.335 419.173,-160.335"/>
<polygon fill="#8e7fb6" stroke="#8e7fb6" points="325.919,-110.012 319.256,-101.303 321.519,-107.638 317.119,-105.263 317.119,-105.263 317.119,-105.263 321.519,-107.638 314.982,-109.223 325.919,-110.012 325.919,-110.012"/>
</g>
<!-- WorkspaceDataSource -->
<g id="node9" class="node"><title>WorkspaceDataSource</title>
<ellipse fill="none" stroke="black" cx="468.688" cy="-18" rx="90.3556" ry="18"/>
<text text-anchor="middle" x="468.688" y="-13.8" font-family="Times,serif" font-size="14.00">WorkspaceDataSource</text>
</g>
<!-- DataSource&#45;&gt;WorkspaceDataSource -->
<g id="edge1" class="edge"><title>DataSource&#45;&gt;WorkspaceDataSource</title>
<path fill="none" stroke="#aec1dd" d="M456.905,-154.079C459.47,-124.675 463.676,-76.4552 466.308,-46.2837"/>
<ellipse fill="none" stroke="#aec1dd" cx="456.534" cy="-158.339" rx="4" ry="4"/>
<polygon fill="#aec1dd" stroke="#aec1dd" points="466.331,-46.015 471.683,-36.4439 466.766,-41.0339 467.2,-36.0528 467.2,-36.0528 467.2,-36.0528 466.766,-41.0339 462.717,-35.6617 466.331,-46.015 466.331,-46.015"/>
</g>
<!-- DataSourceAccount -->
<g id="node3" class="node"><title>DataSourceAccount</title>
<ellipse fill="none" stroke="black" cx="566.688" cy="-90" rx="81.1336" ry="18"/>
<text text-anchor="middle" x="566.688" y="-85.8" font-family="Times,serif" font-size="14.00">DataSourceAccount</text>
</g>
<!-- Dataset -->
<g id="node4" class="node"><title>Dataset</title>
<ellipse fill="none" stroke="black" cx="154.688" cy="-18" rx="36.7489" ry="18"/>
<text text-anchor="middle" x="154.688" y="-13.8" font-family="Times,serif" font-size="14.00">Dataset</text>
</g>
<!-- Dataset&#45;&gt;Workspace -->
<g id="edge3" class="edge"><title>Dataset&#45;&gt;Workspace</title>
<path fill="none" stroke="#e61a7f" d="M189.06,-33.794C210.348,-44.0855 237.404,-57.9219 258.309,-69.1679"/>
<ellipse fill="none" stroke="#e61a7f" cx="185.398" cy="-32.0398" rx="4.00002" ry="4.00002"/>
<polygon fill="#e61a7f" stroke="#e61a7f" points="258.383,-69.2084 265.021,-77.9371 262.776,-71.5958 267.17,-73.9832 267.17,-73.9832 267.17,-73.9832 262.776,-71.5958 269.318,-70.0293 258.383,-69.2084 258.383,-69.2084"/>
</g>
<!-- HdfsDataSource -->
<g id="node5" class="node"><title>HdfsDataSource</title>
<ellipse fill="none" stroke="black" cx="293.688" cy="-180.5" rx="68.6046" ry="18"/>
<text text-anchor="middle" x="293.688" y="-176.3" font-family="Times,serif" font-size="14.00">HdfsDataSource</text>
</g>
<!-- HdfsDataSource&#45;&gt;Workspace -->
<g id="edge5" class="edge"><title>HdfsDataSource&#45;&gt;Workspace</title>
<path fill="none" stroke="#c1d93b" d="M292.759,-152.092C292.392,-141.289 291.973,-128.912 291.608,-118.136"/>
<polygon fill="#c1d93b" stroke="#c1d93b" points="292.77,-152.442 288.612,-162.589 292.94,-157.439 293.109,-162.436 293.109,-162.436 293.109,-162.436 292.94,-157.439 297.607,-162.284 292.77,-152.442 292.77,-152.442"/>
<polygon fill="#c1d93b" stroke="#c1d93b" points="291.603,-118.006 295.762,-107.859 291.434,-113.008 291.264,-108.011 291.264,-108.011 291.264,-108.011 291.434,-113.008 286.767,-108.164 291.603,-118.006 291.603,-118.006"/>
</g>
<!-- HdfsDataSource&#45;&gt;WorkspaceDataSource -->
<g id="edge4" class="edge"><title>HdfsDataSource&#45;&gt;WorkspaceDataSource</title>
<path fill="none" stroke="#169dd1" d="M318.027,-157.177C350.905,-127.024 409.251,-73.5121 442.872,-42.6772"/>
<ellipse fill="none" stroke="#169dd1" cx="314.705" cy="-160.225" rx="4.00002" ry="4.00002"/>
<polygon fill="#169dd1" stroke="#169dd1" points="443.085,-42.4813 453.497,-39.0385 446.77,-39.1017 450.455,-35.7221 450.455,-35.7221 450.455,-35.7221 446.77,-39.1017 447.413,-32.4057 443.085,-42.4813 443.085,-42.4813"/>
</g>
<!-- HdfsDataSourceConnectionParametersSet -->
<g id="node6" class="node"><title>HdfsDataSourceConnectionParametersSet</title>
<ellipse fill="none" stroke="black" cx="825.688" cy="-90" rx="159.821" ry="18"/>
<text text-anchor="middle" x="825.688" y="-85.8" font-family="Times,serif" font-size="14.00">HdfsDataSourceConnectionParametersSet</text>
</g>
<!-- User -->
<g id="node7" class="node"><title>User</title>
<ellipse fill="none" stroke="black" cx="696.688" cy="-180.5" rx="27" ry="18"/>
<text text-anchor="middle" x="696.688" y="-176.3" font-family="Times,serif" font-size="14.00">User</text>
</g>
<!-- User&#45;&gt;DataSourceAccount -->
<g id="edge6" class="edge"><title>User&#45;&gt;DataSourceAccount</title>
<path fill="none" stroke="#34cfb9" d="M671.474,-162.335C650.86,-148.302 621.571,-128.363 599.196,-113.131"/>
<ellipse fill="none" stroke="#34cfb9" cx="675.031" cy="-164.757" rx="4.00002" ry="4.00002"/>
<polygon fill="#34cfb9" stroke="#34cfb9" points="598.954,-112.966 593.22,-103.619 594.821,-110.152 590.688,-107.339 590.688,-107.339 590.688,-107.339 594.821,-110.152 588.156,-111.058 598.954,-112.966 598.954,-112.966"/>
</g>
<!-- User&#45;&gt;HdfsDataSourceConnectionParametersSet -->
<g id="edge7" class="edge"><title>User&#45;&gt;HdfsDataSourceConnectionParametersSet</title>
<path fill="none" stroke="#9a3aa8" d="M721.62,-162.395C741.802,-148.55 770.405,-128.927 792.518,-113.756"/>
<ellipse fill="none" stroke="#9a3aa8" cx="718.195" cy="-164.745" rx="4.00002" ry="4.00002"/>
<polygon fill="#9a3aa8" stroke="#9a3aa8" points="792.7,-113.631 803.492,-111.684 796.823,-110.802 800.946,-107.974 800.946,-107.974 800.946,-107.974 796.823,-110.802 798.401,-104.263 792.7,-113.631 792.7,-113.631"/>
</g>
<!-- Workspace&#45;&gt;Dataset -->
<g id="edge10" class="edge"><title>Workspace&#45;&gt;Dataset</title>
<path fill="none" stroke="#82b815" d="M250.647,-71.4485C229.652,-61.1773 204.425,-48.2122 185.046,-37.7424"/>
<polygon fill="#82b815" stroke="#82b815" points="250.697,-71.4727 257.733,-79.8831 255.196,-73.6531 259.696,-75.8335 259.696,-75.8335 259.696,-75.8335 255.196,-73.6531 261.658,-71.7839 250.697,-71.4727 250.697,-71.4727"/>
<polygon fill="#82b815" stroke="#82b815" points="184.822,-37.6202 178.204,-28.8767 180.434,-35.223 176.046,-32.8258 176.046,-32.8258 176.046,-32.8258 180.434,-35.223 173.889,-36.7749 184.822,-37.6202 184.822,-37.6202"/>
</g>
<!-- Workspace&#45;&gt;WorkspaceDataSource -->
<g id="edge8" class="edge"><title>Workspace&#45;&gt;WorkspaceDataSource</title>
<path fill="none" stroke="#18694c" d="M330.603,-73.3031C357.127,-62.8723 392.115,-49.1131 420.234,-38.0548"/>
<ellipse fill="none" stroke="#18694c" cx="326.645" cy="-74.8596" rx="4.00001" ry="4.00001"/>
<polygon fill="#18694c" stroke="#18694c" points="420.563,-37.9257 431.516,-38.4537 425.216,-36.0958 429.869,-34.2658 429.869,-34.2658 429.869,-34.2658 425.216,-36.0958 428.222,-30.078 420.563,-37.9257 420.563,-37.9257"/>
</g>
<!-- WorkspaceDataset -->
<g id="node10" class="node"><title>WorkspaceDataset</title>
<ellipse fill="none" stroke="black" cx="284.688" cy="-18" rx="75.8893" ry="18"/>
<text text-anchor="middle" x="284.688" y="-13.8" font-family="Times,serif" font-size="14.00">WorkspaceDataset</text>
</g>
<!-- Workspace&#45;&gt;WorkspaceDataset -->
<g id="edge9" class="edge"><title>Workspace&#45;&gt;WorkspaceDataset</title>
<path fill="none" stroke="#1e7464" d="M288.514,-63.6398C288.036,-58.0629 287.528,-52.1319 287.043,-46.4761"/>
<ellipse fill="none" stroke="#1e7464" cx="288.863" cy="-67.7112" rx="4" ry="4"/>
<polygon fill="#1e7464" stroke="#1e7464" points="287.008,-46.0678 290.637,-35.72 286.581,-41.0861 286.154,-36.1043 286.154,-36.1043 286.154,-36.1043 286.581,-41.0861 281.67,-36.4887 287.008,-46.0678 287.008,-46.0678"/>
</g>
</g>
</svg>
